PathFileType  4	(X/Y/Z) C:\Users\HPL 1\Documents/Temp/Sub278498/Files_W_HJCs/
DataRate	CameraRate	NumFrames	NumMarkers	Units	OrigDataRate	OrigDataStartFrame	OrigNumFrames
50.0	50.0	7	42	mm	50.0	429	571
Frame#	Time  	r_knee			r_shank(antsup)			r_ankle			r_calc			r_5meta			r_toe			L_knee			L_shank(ant_sup)			L_ankle			L_calc			L_5meta			L_toe			r_mknee			r_mankle			L_mknee			L_mankle			r_sh2			r_sh3			r_sh4			L_sh2			L_sh3			r_thigh1			r_thigh2			r_thigh3			r_thigh4			r_thigh5			L_thigh1			L_thigh2			L_thigh3			L_thigh4			r.ASIS			r.PSIS			L.ASIS			L.PSIS			C7			R_Shoulder			L_Shoulder			Sternum			R_HJC			L_HJC			R_HJC_reg			L_HJC_reg			
		X1	Y1	Z1	X2	Y2	Z2	X3	Y3	Z3	X4	Y4	Z4	X5	Y5	Z5	X6	Y6	Z6	X7	Y7	Z7	X8	Y8	Z8	X9	Y9	Z9	X10	Y10	Z10	X11	Y11	Z11	X12	Y12	Z12	X13	Y13	Z13	X14	Y14	Z14	X15	Y15	Z15	X16	Y16	Z16	X17	Y17	Z17	X18	Y18	Z18	X19	Y19	Z19	X20	Y20	Z20	X21	Y21	Z21	X22	Y22	Z22	X23	Y23	Z23	X24	Y24	Z24	X25	Y25	Z25	X26	Y26	Z26	X27	Y27	Z27	X28	Y28	Z28	X29	Y29	Z29	X30	Y30	Z30	X31	Y31	Z31	X32	Y32	Z32	X33	Y33	Z33	X34	Y34	Z34	X35	Y35	Z35	X36	Y36	Z36	X37	Y37	Z37	X38	Y38	Z38	X39	Y39	Z39	X40	Y40	Z40	X41	Y41	Z41	X42	Y42	Z42	

429	8.56000	845.83875	601.81409	-614.32013	864.04889	512.80426	-614.18909	798.45844	133.78200	-615.43176	707.32947	84.57591	-654.25256	913.01361	61.85324	-602.71411	944.51837	100.43563	-667.66626	755.78845	565.69440	-867.56317	786.44006	448.39505	-853.50598	696.65015	109.47532	-811.45508	620.88611	72.31200	-755.64880	814.34131	41.46967	-849.17694	861.05011	69.35526	-792.41382	828.34216	584.46124	-740.50299	800.90063	142.32068	-711.69250	780.38293	568.19855	-743.66821	726.64044	123.50609	-721.80139	856.19757	392.92065	-611.64911	790.23914	514.85565	-596.31079	776.04462	400.01944	-588.57440	698.56781	467.61920	-875.05780	684.44592	346.65897	-860.74860	862.24847	933.21167	-596.99274	881.05945	819.31256	-604.63025	845.97900	779.21356	-587.33441	758.02258	905.60608	-558.89789	781.37750	790.89667	-580.96100	823.40509	832.96729	-919.55615	832.61426	696.25012	-901.02948	707.66711	825.77716	-920.67603	720.22296	694.07062	-891.53674	850.40076	1118.30884	-651.81055	653.53540	1137.32385	-718.60217	830.24561	1088.78723	-905.36737	651.67975	1127.33337	-801.67090	712.63983	1621.36255	-820.80054	765.19910	1598.13147	-661.86938	756.15472	1567.36731	-1003.99384	843.91272	1532.42236	-825.13696	785.16142	1028.14794	-642.49223	762.21527	1001.83627	-876.26430	775.25762	1035.93278	-676.51813	771.51026	1015.75766	-844.27002
430	8.58000	858.64410	604.78577	-614.49921	880.10162	516.67975	-614.49377	829.81592	135.82738	-615.40924	740.24249	82.91023	-653.75220	947.00378	67.90101	-603.91602	976.86346	107.76033	-668.10095	755.22180	565.91235	-867.37939	786.08020	448.32706	-853.40521	696.72058	109.51092	-811.20374	620.90521	72.33609	-755.53381	814.32892	41.30902	-848.98273	861.08319	69.40675	-792.47217	840.12390	587.29260	-740.39227	831.04022	143.91808	-711.51550	779.75360	567.88403	-743.40112	726.77057	123.43491	-721.52393	876.95642	396.53857	-612.03717	806.34344	515.86047	-595.90747	796.53064	400.40176	-588.23352	698.21289	467.41864	-874.80933	684.16949	346.40472	-860.28546	864.35541	936.16455	-597.37164	886.62677	823.09631	-605.18585	853.06647	781.95886	-587.37048	761.49542	905.68872	-558.23779	788.03418	791.41687	-580.80725	822.59503	833.40845	-919.22266	832.00885	696.59088	-901.01630	706.66736	825.87872	-920.66077	719.60583	694.17377	-891.34998	847.97827	1119.62109	-651.74652	651.02960	1136.32483	-718.67041	827.76752	1088.90662	-905.59814	649.27045	1126.45374	-801.74835	710.20886	1621.37634	-821.04645	762.44763	1598.06079	-661.76086	755.25739	1567.26917	-1003.83429	841.78491	1532.38782	-824.65662	783.61552	1028.80706	-642.30758	760.71511	1001.51754	-875.97201	773.70101	1035.57668	-676.53992	770.14217	1015.60699	-844.61061
431	8.60000	871.96967	608.96021	-614.34149	897.15167	521.84570	-614.35669	864.88672	138.74153	-615.74146	777.15973	82.14802	-653.49939	984.48065	75.84795	-604.29260	1012.43225	117.59509	-668.74677	754.70007	565.95685	-867.05707	785.62543	448.36038	-853.18457	696.70581	109.49899	-810.99573	620.92242	72.36394	-755.40564	814.28064	41.31067	-849.04095	861.04578	69.33450	-792.45618	853.30920	591.16516	-740.17133	864.91101	147.41841	-711.60590	780.08154	567.53345	-743.70435	726.76733	123.35908	-721.30585	899.61218	401.80701	-611.99963	823.61145	517.70081	-595.54303	819.07593	401.86069	-587.85352	697.69391	467.28467	-874.57050	683.85376	346.22833	-860.03741	867.12598	939.70581	-597.63824	892.42426	827.92456	-605.33606	860.36664	785.48694	-587.08026	764.33868	906.21527	-557.67542	795.06781	792.78418	-580.29712	821.59607	833.87292	-918.62299	831.37164	697.03821	-900.79895	705.56793	825.82141	-920.63147	719.03052	694.02087	-891.26471	845.24677	1121.24622	-651.40735	648.17932	1135.28918	-718.79657	825.91833	1089.43323	-905.24829	646.86749	1125.43298	-801.53986	707.77863	1621.36230	-821.52264	759.35876	1598.07104	-661.85486	754.62506	1567.11597	-1004.01184	839.58496	1532.27478	-824.16718	781.96444	1029.67947	-641.77792	759.78779	1001.42210	-875.39712	771.97969	1035.76626	-676.40698	769.31432	1015.74049	-844.52432
432	8.62000	886.03253	614.22632	-613.89307	915.31012	527.97723	-614.03278	902.33630	144.13687	-615.54901	817.87396	83.08978	-653.40759	1024.86780	86.56032	-605.27649	1050.90356	130.43523	-669.70789	753.85583	565.99133	-866.53778	784.22467	448.18478	-852.37579	696.68604	109.46167	-810.67230	620.97656	72.30089	-755.25977	814.30316	41.29697	-849.05750	861.09589	69.39319	-792.53680	868.44415	594.96283	-739.64191	901.78430	152.65414	-711.77850	779.30328	567.56586	-743.34753	726.80090	123.13683	-721.00623	923.90082	408.44067	-611.95459	842.19073	520.38953	-594.93689	843.49457	404.50793	-587.48779	696.92517	467.12903	-874.16760	683.64960	346.11456	-859.49078	867.83636	944.19208	-596.93939	898.16162	833.45923	-605.03503	867.80780	789.85968	-586.48315	767.91187	906.93268	-557.03125	802.38477	795.21790	-579.51886	820.33331	834.14941	-917.95435	830.66626	697.34131	-900.22064	704.55823	825.69019	-920.23627	718.21149	694.13910	-890.99579	842.21118	1123.09900	-651.12390	645.17188	1134.12109	-718.65369	823.80249	1089.77625	-904.74518	644.28876	1124.31421	-801.36646	705.49878	1621.23279	-822.49738	755.54071	1598.14099	-662.45319	754.19238	1566.69360	-1004.52539	837.31018	1532.11755	-823.66473	780.18840	1030.73029	-641.05612	758.69745	1001.16562	-874.57760	770.20679	1035.80580	-676.30776	768.41222	1015.87749	-844.38624
433	8.64000	900.78357	620.18304	-612.81952	934.36212	535.49829	-612.71136	942.92133	151.58458	-615.93555	860.64594	87.86371	-653.91040	1068.82727	101.17401	-606.40204	1091.46667	146.11797	-670.67560	752.80377	565.90375	-865.78943	783.20215	448.18942	-851.85132	696.72418	109.38226	-810.12177	620.98303	72.23848	-755.09900	814.29529	41.59256	-849.47296	860.40295	69.34446	-792.43524	884.43738	600.06244	-738.47491	941.54504	160.64395	-712.03290	778.48383	567.49658	-742.77399	726.80603	122.84071	-720.62415	949.64752	416.71246	-611.34839	862.07062	524.22736	-593.98572	869.50018	408.46298	-586.92102	695.84705	467.03519	-873.29974	682.88574	345.79199	-858.70074	870.00232	949.02441	-596.50684	903.96344	839.90149	-604.02710	875.36267	795.15729	-585.49884	770.92712	908.29901	-555.92920	809.79144	797.89600	-578.22028	819.22778	834.57971	-917.01428	829.71826	697.80255	-899.52618	703.26379	825.61316	-919.57147	717.97644	694.40369	-890.51447	838.68781	1125.09265	-650.81042	642.27795	1133.06372	-718.33099	822.19818	1090.63147	-904.14014	641.76031	1123.29993	-801.11627	703.10736	1621.12793	-823.83350	751.38971	1598.41150	-663.35974	754.10474	1566.08008	-1005.23358	834.99976	1531.92346	-823.38556	778.35123	1031.87650	-640.30028	757.95569	1001.32560	-873.79305	768.54910	1036.23592	-676.15818	767.49913	1016.43113	-844.07918
434	8.66000	916.19183	627.67871	-611.26733	954.13293	545.06531	-611.81897	985.26062	161.89888	-616.30347	907.27374	92.28724	-654.32562	1113.79688	117.99492	-607.20990	1133.67749	164.85518	-670.90662	751.55542	566.07068	-865.03076	781.69641	448.23526	-851.36407	696.73419	109.34819	-809.69293	621.05878	72.24953	-754.86163	813.78265	41.64117	-849.33160	860.93878	69.54230	-792.78601	901.37122	606.92847	-736.94055	983.30011	171.46786	-712.33844	777.30865	567.59546	-742.09540	726.89124	122.70647	-720.11078	976.22833	427.04977	-610.47693	882.55273	529.18921	-592.77203	896.86963	414.08005	-586.67896	694.27515	466.70331	-872.45172	681.54327	345.49622	-857.87445	871.03961	954.62305	-595.53497	909.81482	847.35297	-602.63837	883.13049	801.31500	-584.21808	773.83777	909.92218	-554.62366	817.42291	801.78876	-575.92773	817.76819	835.07623	-915.76105	829.36914	699.15033	-898.25275	702.05841	825.91675	-918.99902	716.83301	694.58374	-889.96503	834.90796	1127.34802	-650.38165	639.10040	1132.42859	-718.25287	819.79517	1090.79163	-903.49091	639.08673	1122.38611	-800.77740	700.95496	1620.92749	-825.57300	746.99677	1598.76941	-664.50964	754.23962	1565.24829	-1006.17310	832.89868	1531.74963	-823.06573	775.99176	1033.47858	-639.22042	756.50841	1001.05350	-872.53829	766.08373	1036.96876	-675.63461	766.05592	1016.54396	-843.47635
435	8.68000	931.90900	636.16931	-609.67279	974.26587	555.89935	-610.06128	1028.58337	174.79422	-616.21466	955.08508	101.27885	-654.34729	1159.60803	138.95403	-606.69641	1177.06628	187.00891	-670.23602	749.98859	566.33655	-864.24884	780.38593	448.53238	-850.72736	696.72968	109.31487	-809.29504	621.14087	72.29238	-754.68823	813.82434	41.66597	-849.40668	861.02228	69.56327	-792.90704	919.32056	615.42377	-736.33209	1026.51721	185.18858	-712.15631	776.20789	567.72107	-741.40594	727.00641	122.50933	-719.97614	1003.41351	439.33673	-608.92572	903.61310	535.61432	-591.50806	924.83173	421.56912	-585.78314	693.09918	466.44788	-871.38367	680.57324	345.34225	-857.06354	871.47858	960.71747	-594.27216	915.65485	855.52972	-601.24786	891.16846	808.31476	-582.48224	777.00623	911.77612	-552.91559	825.30713	805.64185	-574.29187	816.58069	835.69019	-914.51056	827.91193	699.10583	-897.58679	701.00189	826.15643	-918.47681	716.21613	695.00476	-889.11249	830.77283	1129.64270	-649.84570	635.65430	1131.77112	-717.80347	817.49878	1091.18896	-902.56531	636.52820	1121.61584	-800.22485	698.98932	1620.71118	-827.60168	742.58154	1599.08850	-665.71100	754.87555	1564.17542	-1007.19757	830.75970	1531.48193	-822.74500	773.46367	1035.10586	-637.94531	755.10277	1001.00532	-871.11529	763.20372	1037.57164	-675.40617	764.98144	1016.91336	-843.07101
